<?xml version="1.0" encoding="utf-8"?>
<!-- Generator: Adobe Illustrator 22.1.0, SVG Export Plug-In . SVG Version: 6.00 Build 0)  -->
<svg version="1.1" id="Layer_1" xmlns="http://www.w3.org/2000/svg" xmlns:xlink="http://www.w3.org/1999/xlink" x="0px" y="0px"
	 viewBox="0 0 798 70" style="enable-background:new 0 0 798 70;" xml:space="preserve">
<style type="text/css">
	.st0{fill:#FFFFFF;}
</style>
<title>Raymond James</title>
<path class="st0" d="M42.8,33c9.1,0,13.7-3.5,13.7-12.8C56.5,11.6,53,7,44,7c-1,0-4.2-0.1-4.5,1s-0.3,7.4-0.3,8.8v16.1L42.8,33z
	 M110.2,41.2l-8.3-21.7L93,41.2H110.2z M187.2,6.5c-3.6,0.5-5,3.1-6.8,6.3l-16,26.9v10.1c0,8.1-0.2,12.2,9.2,11.9V65H108v-3.3
	c2.8-0.4,7.8-0.2,7.8-4.2c0-1.5-1.2-4.8-1.8-6.2l-2-5.4H91.2L90,48.7c-0.9,2.4-2.3,5.4-2.3,7.9c0,4.6,4.3,4.9,7.8,5.2v3.4H64
	l-13.4-19c-3.1-4.3-7.2-9.1-9.8-8.9c-0.5,0-1,0.1-1.5,0.1v12.4c0,7.7-0.1,12.2,9,11.9V65H16v-3.4c9,0.3,8.9-4.1,8.9-11.9V18
	c0-7.7,0.2-12.2-8.9-11.9V2.7C21.4,2.8,26.7,3,32,3.1C37.1,3,42.1,2.8,47.3,2.7c4.5,0.2,11.4,0.5,15.6,2.3c6.1,2.5,9.3,7.5,9.3,14.1
	c0,8.4-7.1,13.7-14.8,14.9L70.2,50c1.9,2.8,3.9,5.5,6.1,8c0.8,0.8,2.1,1.9,3.7,0c2.7-3.2,4.3-7.9,5.8-11.4l18.7-44.9h4.5l19.4,48.5
	c1,2.5,2.9,7.2,4.8,9.1c1.8,1.3,4,2,6.2,2.2h1.9c8.9,0,8.6-3.9,8.7-11.9v-8.2l-16.3-29c-2.5-4.2-3-5.3-7.9-6.4V2.7
	c4.7,0.1,9.5,0.3,14.2,0.4c5.4-0.1,10.7-0.3,16.1-0.4V6c-2.5,0.2-7.1,0.5-7.1,4.1c0,1.9,2.4,6.1,3.4,7.8l9.4,17.1l9.1-15.2
	c1.2-2.3,3.6-6.6,3.6-9.1c0-4.1-3.6-4.7-6.9-4.7V2.7h40.6l18.5,44l17-44c3.6,0.1,7.2,0.3,10.7,0.4c3.8-0.1,7.5-0.3,11.9-0.4V6
	c-9.1-0.3-8.8,4.3-8.9,12.1v29.6c-0.1,3.1,0.1,6.1,0.7,9.1c1,4,4.5,4.3,8.1,4.9v3.4h-31.9v-3.4c3.6-0.6,7.2-1,8.1-4.9
	c0.5-3,0.8-6.1,0.7-9.1V18H243l-18.9,47h-4.5L200,17.2h-0.2v28.9c0,3,0,9.1,1.4,11.7c1.5,2.8,4.7,3.5,7.6,3.8V65h-22.5v-3.4
	c3.6-0.6,7.2-1,8.1-4.9c0.5-3,0.8-6.1,0.7-9.1V10.2C193.5,7.6,190.4,6.1,187.2,6.5L187.2,6.5z"/>
<path class="st0" d="M267.6,34c0-20.2,16.1-32.1,35.1-32.1s35,12.1,35,32.1s-16.2,32.1-35.3,32.1S267.6,53.8,267.6,34z M283.9,33.4
	c0,12.1,3.3,28.4,18.5,28.4c15.5,0,19-14.2,19-27.2c0-12.6-3.3-28.4-19-28.4C287.3,6.1,283.9,21.3,283.9,33.4z"/>
<path class="st0" d="M407.1,6.2c-8.5,0.1-8.4,3.3-8.4,14.9v45.3h-4.6l-42.8-48.7v29.1c0,7.2,0,14.5,9.1,14.9V65h-22.2v-3.4
	c7.8-0.8,8.4-4.6,8.4-11.3V12.6c-3-4.2-4.2-5.9-9.4-6.4V2.8c3,0.1,6,0.3,9,0.4c3.6-0.1,7.1-0.3,10.7-0.4l37.2,42.9V20.5
	c0-7.2,0-14.1-9-14.4V2.8h53.4c9.2,0,17.8,1.8,25,7.9c7.5,6.5,10.7,15.1,10.7,24.8c0,8.7-2.7,16.5-9.2,22.5
	c-6.7,6-15.8,7.5-24.6,7.2c-5-0.1-30.4,0-30.4,0v-3.4c9.1,0.3,8.9-4.1,8.9-11.9V18c0-7.5,0.2-11.8-8.9-11.8L407.1,6.2z M431.4,44.2
	c0,2.8,0,9.4,0.9,11.9c1.2,3.3,4.3,4.6,7.6,4.6c14.6,0,16-14.5,16-25.9c0-6.3-0.9-13.9-3.8-19.6c-3.4-6.4-9.9-8.2-16.7-8.2
	c-0.8,0-3.1,0.2-3.8,0.9c-0.3,0.7-0.5,1.5-0.4,2.3v34H431.4L431.4,44.2z"/>
<path class="st0" d="M509,42.8c-0.4,0.1-0.9,0.4-1.2,0.7c-1.5,1.2-2.9,6-2.1,11c1,5.6,6.2,9.5,11.9,8.8c9.5-1.3,7.8-8.4,7.8-28.5
	V18.1c0-7.8-0.3-12.3-9.5-12.1V2.7c4.7,0.1,10.1,0.3,14.9,0.4c5.9-0.1,12.6-0.3,18.6-0.4V6c-7.8,0.2-8.9,1.5-8.9,12.1v22.7
	c0,15.6-4.1,23.8-19,26.4c-10.9,1.9-25.6-0.5-29.7-11.3c-2-5.3-1.2-11.1-1.2-13.5l13.9-2.7l3.8-0.7L509,42.8"/>
<path class="st0" d="M576.3,41.2L568,19.5l-8.9,21.7H576.3z M737.8,45.2h3.7c2.6,8.6,7,16.5,17.4,16.5c5.5,0,10.8-3.6,10.8-9.4
	c0-8.8-9.1-11.2-15.7-14c-8.5-3.7-15.4-8.4-15.4-18.8c0-11.6,8.9-17.8,19.8-17.8c5.1,0,10.4,1.1,14.1,4.6l1.2-3.7h4.1l0.6,17h-4.1
	C772.7,12.4,767.2,6,759,6c-4.6,0-9.3,2.6-9.3,7.7c0,7.1,7.2,9,12.5,11.5c10.1,4.3,19.6,8.8,19.6,21.4S771.2,66,759.8,66
	c-6,0-12.2-2-16.4-6.4L742,65h-94v-3.4c3.6-0.6,7.2-1,8.1-4.9c0.5-3,0.8-6.1,0.7-9.1V18h-0.2l-18.8,47h-4.5l-19.8-47.8h-0.2v28.9
	c0,3,0,9.1,1.4,11.7c1.5,2.8,4.7,3.5,7.5,3.8V65H574v-3.4c2.8-0.4,7.8-0.2,7.8-4.2c0-1.5-1.2-4.8-1.8-6.2l-2-5.4h-20.8l-1.1,2.7
	c-0.8,2.4-2.3,5.4-2.3,7.9c0,4.6,4.3,4.9,7.8,5.2V65h-21v-3.3c3.8-0.7,6.1-3.8,7.9-7.2c1.3-2.6,2.4-5.2,3.4-7.8l18.7-44.9h4.5
	l19.4,48.5c1,2.5,2.9,7.3,4.8,9.1c0.7,0.6,1.4,1.1,2.3,1.4c0.8,0.3,1.6,0.3,2.4,0c1.8-0.6,3.2-2.1,3.6-4c0.5-3,0.8-6.1,0.7-9.1V10.1
	c-1.7-3.3-5.4-3.9-8.8-4.2V2.5c3.4,0.1,6.9,0.3,10.3,0.4c4-0.1,7.8-0.3,11.8-0.4l18.5,44l17-44h75.7l0.8,16.6h-4.1
	c-1.6-9.3-7-12.3-16-12.3c-1.1,0-7.2,0-7.7,1c-0.3,0.5-0.3,4.6-0.3,5.4v17.5c7.6,0,12.5-1.4,12.9-10.1h3.8c-0.1,4.3-0.3,8.7-0.4,13
	c0.1,3.9,0.3,7.8,0.4,11.7h-3.8c-1.8-8.7-4.2-10.1-12.9-10.1v10.9c0,8.9-0.3,14.5,10.9,14.5h4.7c10-0.2,13.8-3.5,16.2-13.8
	C737.5,46.3,737.7,45.8,737.8,45.2z M691.2,18c0-6.1,0.1-10.1-4.2-11.4c-1.3-0.3-2.6-0.4-3.9-0.4H679c-1.3,0-2.6,0.1-3.8,0.4
	C670.9,7.9,671,12,671,18v31.8c0,6.1-0.1,10.1,4.2,11.4c1.3,0.3,2.6,0.4,3.9,0.4h4.1c1.3,0,2.6-0.1,3.8-0.4
	c4.3-1.3,4.2-5.4,4.2-11.4L691.2,18z"/>
</svg>
